<svg width="23" height="25" viewBox="0 0 23 25" fill="none" xmlns="http://www.w3.org/2000/svg">
<path d="M22.2511 2.00108H11.2258C10.7259 2.00108 10.2359 2.43244 10.1371 2.95955L9.51596 6.26316C9.41717 6.79026 9.74486 7.22163 10.2447 7.22163H11.3627C11.3696 7.22163 11.3754 7.22373 11.3822 7.22373H17.7459C18.279 7.22373 18.7113 7.68876 18.7113 8.2611C18.7113 8.83345 18.28 9.29953 17.7459 9.29953H9.52676C8.99368 9.29953 8.56134 9.76456 8.56134 10.338C8.56134 10.9114 8.99368 11.3764 9.52676 11.3764H15.5872C16.0997 11.4016 16.5086 11.853 16.5086 12.4106C16.5086 12.9682 16.0978 13.4227 15.5823 13.4459L16.1936 13.4717C19.8401 13.4717 18.7278 13.4417 15.0423 13.4459C18.7278 13.4417 16.0423 13.9829 16.0423 14.5416C16.0423 15.1002 14.4669 17 15 17L16.1936 15.5227C16.7267 15.5227 17.159 15.9878 17.159 16.5612C17.159 17.1345 16.7277 17.5996 16.1936 17.5996H11.9848C11.8488 17.5996 11.7207 17.5691 11.6033 17.5144C10.6546 17.2661 9.76546 16.3244 9.76546 16.3244C9.40942 15.9478 8.82058 15.9404 8.4577 16.3097L5 19.8321C6.41827 21.9437 8.72668 23 11.9261 23C14.4164 23 16.3795 22.3751 17.8163 21.1231C19.2522 19.8711 20.4787 15.8341 20.4787 15.8341C20.6342 15.3239 20.8416 14.4738 20.9394 13.9467L22.9828 2.9585C23.0806 2.43139 22.752 2.00003 22.2521 2.00003L22.2511 2.00108Z" fill="black"/>
<path d="M4.20724 24.9983V13.5017L10.5 12.0017L15.7935 14.6048L15.5 20C15.6864 20.1165 16.4653 19.9466 16.3708 19.3775L16.3964 19.3903C16.5 20 16.477 19.9881 16.5 20C17.2909 20.3768 18.139 19.9925 19.0876 19.9925C19.3684 19.9925 19.6337 19.9815 19.8768 19.9576C19.9187 19.9534 19.9589 19.9508 20 19.9466V5.05852C19.9598 5.05427 19.9178 5.05 19.8759 5.04575C19.6246 5.01938 19.3627 5.00662 19.0876 5.00662C18.1398 5.00662 17.2562 5.198 16.4628 5.57482C16.4423 5.58503 16.4193 5.5961 16.3964 5.60715L16.3733 5.6182C16.1729 5.71602 15.9799 5.82405 15.7935 5.94058L10.5 8.5L8 5.94058L4.20724 0H0V25H4.20724V24.9983Z" fill="black"/>
</svg>
